<?xml version="1.0" standalone="no"?>
<!DOCTYPE svg PUBLIC "-//W3C//DTD SVG 1.1//EN" "http://www.w3.org/Graphics/SVG/1.1/DTD/svg11.dtd" >
<svg>
<metadata>
Created by FontForge 20130207 at Sat May  4 09:05:22 2013
 By Michael Hurley
2007 Vic Fieger
</metadata>
<defs>
<font id="BostonTraffic" horiz-adv-x="636" >
  <font-face 
    font-family="Boston Traffic"
    font-weight="400"
    font-stretch="normal"
    units-per-em="2048"
    panose-1="2 0 0 0 0 0 0 0 0 0"
    ascent="1638"
    descent="-410"
    x-height="1805"
    cap-height="1815"
    bbox="-16 -235 1372.82 1855"
    underline-thickness="48"
    underline-position="-140"
    unicode-range="U+0020-F002"
  />
<missing-glyph horiz-adv-x="500" 
d="M95 32h960v1216h-960v-1216zM63 0v1280h1024v-1280h-1024z" />
    <glyph glyph-name=".notdef" horiz-adv-x="500" 
d="M95 32h960v1216h-960v-1216zM63 0v1280h1024v-1280h-1024z" />
    <glyph glyph-name=".null" horiz-adv-x="0" 
 />
    <glyph glyph-name="nonmarkingreturn" horiz-adv-x="390" 
 />
    <glyph glyph-name="space" unicode=" " horiz-adv-x="390" 
 />
    <glyph glyph-name="exclam" unicode="!" horiz-adv-x="249" 
 />
    <glyph glyph-name="quotedbl" unicode="&#x22;" horiz-adv-x="237" 
 />
    <glyph glyph-name="numbersign" unicode="#" 
 />
    <glyph glyph-name="dollar" unicode="$" 
 />
    <glyph glyph-name="percent" unicode="%" 
 />
    <glyph glyph-name="ampersand" unicode="&#x26;" horiz-adv-x="486" 
 />
    <glyph glyph-name="quotesingle" unicode="'" horiz-adv-x="169" 
 />
    <glyph glyph-name="parenleft" unicode="(" horiz-adv-x="336" 
 />
    <glyph glyph-name="parenright" unicode=")" horiz-adv-x="384" 
 />
    <glyph glyph-name="asterisk" unicode="*" horiz-adv-x="492" 
 />
    <glyph glyph-name="plus" unicode="+" 
 />
    <glyph glyph-name="comma" unicode="," horiz-adv-x="237" 
 />
    <glyph glyph-name="hyphen" unicode="-" horiz-adv-x="532" 
d="M381 905v-94l-43 -9h-188l-60 9h-25q-17 91 8 213l-8 34l8 26l171 -9h26l68 9l25 -9z" />
    <glyph glyph-name="hyphen" unicode="&#x2010;" horiz-adv-x="532" 
d="M381 905v-94l-43 -9h-188l-60 9h-25q-17 91 8 213l-8 34l8 26l171 -9h26l68 9l25 -9z" />
    <glyph glyph-name="period" unicode="." horiz-adv-x="521" 
d="M48 146q41 113 171 145h17q192 -128 68 -273q-194 -109 -256 128z" />
    <glyph glyph-name="slash" unicode="/" horiz-adv-x="1001" 
d="M1023 1802v-1455l-114 -349h-505l584 1804h35zM-15 252l-1 1550h505z" />
    <glyph glyph-name="zero" unicode="0" horiz-adv-x="1179" 
d="M1031 1137v-506l-9 -17v-68q-10 -37 -8 -86l-9 -35v-60l-8 -25v-35q-37 -60 -69 -163q-122 -118 -300 -145q-28 98 -17 231q0 13 -9 26q24 60 86 103l26 51q6 28 0 60l8 69v412l-25 17l25 43l-8 60q8 25 8 68q9 60 0 146v146q-43 28 -94 77v266l34 34q187 -34 309 -214
q-2 -32 17 -77q0 -60 17 -146q0 -60 17 -146q-6 -38 9 -86zM474 1815v-309q-43 -21 -77 -77q-11 -58 -9 -137v-601q-47 -233 86 -420v-283q-450 36 -412 866v240l17 69q-2 41 0 155l9 25v43l17 86l34 137q107 142 300 206h35z" />
    <glyph glyph-name="one" unicode="1" horiz-adv-x="656" 
d="M193 1815h277q2 -9 17 -17v-858l-9 -34v-61q3 -11 0 -34q15 -61 9 -156v-121q6 -57 -9 -139l9 -17v-122l-9 -26l9 -26q-13 -51 -9 -121l9 -60q-17 6 -43 0q-69 -44 -156 -35q-28 0 -69 9h-26q6 32 0 78q13 58 9 147v589l8 43q-13 58 -8 147l8 43q-11 52 0 122
q-13 58 -8 147v130q-9 39 -148 -9q-30 106 -17 251q85 41 156 130z" />
    <glyph glyph-name="two" unicode="2" horiz-adv-x="1185" 
d="M985 17q-13 0 -17 -17q-72 9 -186 -8l-25 8h-346q-87 13 -220 0l-25 9l-26 -9l-59 9q-57 148 9 329q86 -19 211 -8l25 -9l9 17q69 -19 169 -8q44 -11 101 0l34 -9h34q23 -2 67 9q57 -13 144 -9l33 17q60 -10 76 -67l-8 -169v-85zM267 431h-84l-17 -8h-26l-33 17
q-2 40 0 101q71 59 118 161q23 16 42 42l59 50v26q57 17 102 76q97 32 194 127l34 50q19 36 42 102l17 16q23 91 8 212q-148 162 -84 397h25q513 -218 296 -786q-47 -38 -85 -110l-25 -17l-17 -17l-25 -16l-17 -17l-17 -26q-28 -17 -68 -50l-93 -93l-25 -17l-135 -135
l-42 -102q-49 -2 -119 17q-12 -4 -25 0zM512 1791v-135q-4 -36 9 -68v-50l-9 -26q-106 -42 -118 -160q-28 -25 -42 -59l-110 42l-26 9l-16 8l-26 8l-25 9l-17 17h-25l-26 8l-8 26q42 321 388 405z" />
    <glyph glyph-name="three" unicode="3" horiz-adv-x="1168" 
d="M236 539l17 17l52 -8q28 -150 163 -266v-17q-20 -88 0 -189q-11 -45 -35 -94l-137 43q-272 133 -257 437l51 34q54 5 120 43h26zM579 1782l34 43q496 -191 343 -771q-57 -41 -120 -120q26 -54 86 -103q2 -30 34 -60q170 -708 -394 -763q-2 40 0 103v171q30 43 86 77
q126 397 -163 429q-13 40 -17 103l17 197q128 4 197 128q-2 54 0 129v51q-19 69 -94 103q-2 35 -17 77q23 90 8 206zM39 1422q47 292 352 403q51 4 102 -34q-23 -75 0 -172q-17 -47 -17 -111q-126 -54 -163 -214q-77 0 -154 51q-43 24 -94 69z" />
    <glyph glyph-name="four" unicode="4" horiz-adv-x="1235" 
d="M524 1236v-128l-9 -26v-51l17 -26q-15 -19 -17 -51v-34q-44 -54 -93 -145l-17 -8l-17 -26l-9 -17l-26 -25q53 -18 120 -9l42 -25l9 -188l-9 -25v-34l-34 -18q-73 13 -187 0h-222q-2 9 -17 18q-7 74 0 187v68q55 75 120 213q32 27 51 77l25 34q19 53 68 119l17 43l26 42
l17 43l34 34l17 43l26 25l8 51l26 35l42 -26zM933 1789v-1107q123 22 119 -120q-21 -64 -17 -144q-43 -1 -102 -18v-374l-17 -26h-247l-17 9q-23 77 -17 187v554l8 34q-1 58 0 153v205q5 50 -8 119l8 26l-8 25v60q11 78 -17 170q11 36 0 77l8 26v42l9 34q55 16 68 85
q8 -1 17 9l170 -9h26q2 -8 17 -17z" />
    <glyph glyph-name="five" unicode="5" horiz-adv-x="1201" 
d="M299 547h25l26 -44q-6 -136 121 -224q43 -374 -138 -277q-255 124 -285 432l216 95zM584 1117l25 60q432 -121 398 -639q-15 -555 -423 -527q0 61 8 156v60l-8 17q28 61 95 95q0 52 17 121v138q2 9 -9 18q9 58 -8 138v26l-104 95l9 173v69zM825 1816q20 0 44 9l86 -17
q28 -132 -9 -303q-82 11 -198 -8l-26 8l-26 -8l-35 8l-34 -8l-35 8h-43l-35 -8h-51l-26 -18q4 -66 -26 -146v-26l-17 -61v-95q21 2 43 18l26 8l26 -60q-31 -87 -9 -190l-9 -61q-62 -17 -121 -78h-26q-73 89 -216 173l-17 18l-17 8l-9 35l9 138v26l17 121v60l9 35l17 190
l17 34q-6 56 9 104l-9 17v61q69 -5 182 8l26 -8l26 8h457z" />
    <glyph glyph-name="six" unicode="6" horiz-adv-x="1179" 
d="M622 1099l34 9q396 -141 347 -597q10 -375 -364 -511q-11 17 -35 35v242q152 78 139 268q22 180 -121 303q6 50 -18 95l18 96v60zM622 1593q-20 114 34 233q405 -129 321 -415q-80 -15 -173 -69q-39 153 -182 251zM371 1169v-52q36 -50 104 0q39 -89 26 -208l-9 -78
l-9 -17q-169 -78 -121 -347q17 -112 130 -173q9 -84 0 -216v-52l-9 -26q-435 56 -398 831q-28 138 9 329v112l26 130v26l17 69v26l61 122l8 17l18 9l8 17l9 26q71 67 182 104q8 2 17 17l43 -9l9 -138v-69l-9 -18v-26q-65 -71 -104 -190q7 -82 -8 -216z" />
    <glyph glyph-name="seven" unicode="7" horiz-adv-x="1149" 
d="M556 172v-129l-43 -43q-67 -8 -164 0h-26l-17 9l-43 -9l-26 9q-3 35 7 81t10 108q24 58 26 138l18 69q2 79 34 163q4 50 26 121v34q13 45 34 95l43 189l9 43q41 76 51 190q20 8 35 34q73 -15 163 9q39 0 104 -9l17 -43q-26 -41 -35 -103q-41 -60 -51 -155
q-22 -50 -26 -112l-17 -26l-9 -34v-26q-36 -95 -60 -232q-13 -37 -17 -87l-9 -68l-9 -35v-26zM478 1825h78q58 -9 129 0l17 -9h112l43 9h86q21 -118 17 -293v-25q-32 -46 -60 -112q-32 2 -78 -9h-51q-28 11 -69 0q-19 2 -43 -9l-52 18q-13 53 9 120l-52 9q-58 -7 -137 0
l-69 -9l-26 9h-26q-39 -7 -103 -9l-43 9q-30 0 -60 -9l-35 9q-15 82 -8 198l-9 34l9 17v35l8 17q119 -37 258 0q67 -17 155 0z" />
    <glyph glyph-name="eight" unicode="8" horiz-adv-x="1224" 
d="M730 1774q23 21 42 51q487 -173 334 -760q-30 -24 -43 -69q-56 -32 -77 -94q395 -414 -26 -854q-34 -4 -68 -34q-45 -3 -86 -26q-38 -4 -68 34l-26 -8q30 113 9 265q96 70 120 196q38 177 -94 308q2 57 -17 136l8 26l-8 26l17 111q134 113 85 350q-17 51 -77 68
q-6 26 -25 52q14 72 0 170v52zM533 1799l17 26q34 -11 77 -43q-9 -45 0 -94q-6 -42 0 -102l-17 -94l-60 -51q-8 -47 0 -112l-8 -42l8 -52v-102q28 -39 77 -60l26 -60q-20 -66 0 -145v-51q-7 -13 -9 -34q-53 -26 -111 -86q0 -49 -17 -128q0 -79 17 -197q149 -151 68 -367
q-553 81 -367 778l111 136l26 17q-295 338 -43 769l179 94h26z" />
    <glyph glyph-name="nine" unicode="9" horiz-adv-x="1119" 
d="M67 375q79 30 163 103h42q51 -118 162 -214l35 -17q42 -284 -120 -205q-181 64 -282 265v68zM964 1144v-248q8 -100 -9 -265v-68l-8 -34v-77q-18 -49 -18 -111q-36 -55 -68 -154q-109 -125 -290 -179l-26 60q24 60 26 154l-17 25q179 165 128 504q-47 -4 -94 -26
q-2 19 -17 34l-9 52q15 44 0 102q0 47 9 111q132 60 120 222q32 177 -120 273q2 32 -26 51q24 67 0 154q28 38 9 77l26 25q164 -42 290 -204q6 -39 34 -86q4 -36 17 -68l8 -103l18 -17v-102l8 -26v-25zM452 1818v-137q-5 -36 8 -68l-8 -17v-34q-65 -54 -120 -145v-273
q32 -101 128 -163q24 -113 -8 -264q-359 55 -385 444q-34 249 86 512q36 21 85 68q7 13 9 34q42 9 76 43q30 2 60 17z" />
    <glyph glyph-name="colon" unicode=":" horiz-adv-x="231" 
 />
    <glyph glyph-name="semicolon" unicode=";" horiz-adv-x="237" 
 />
    <glyph glyph-name="less" unicode="&#x3c;" horiz-adv-x="994" 
d="M95 898l300 900h505l-320 -900l320 -900h-505z" />
    <glyph glyph-name="equal" unicode="=" 
 />
    <glyph glyph-name="greater" unicode="&#x3e;" horiz-adv-x="994" 
d="M600 -2h-505l320 900l-320 900h505l300 -900z" />
    <glyph glyph-name="question" unicode="?" horiz-adv-x="567" 
 />
    <glyph glyph-name="at" unicode="@" horiz-adv-x="579" 
 />
    <glyph glyph-name="A" unicode="A" horiz-adv-x="1230" 
d="M88 3h-52l-17 25q-1 62 26 129q5 78 43 189l17 120l9 51l17 60l25 120v43l18 34q-1 60 25 146l35 180l17 69v34l26 43l60 -17q-2 -61 17 -137q-5 -51 17 -112v-34l8 -17v-35l9 -34l17 -171q-1 -13 9 -26v-26l8 -34q5 -61 -25 -129v-68l-9 -26v-26l-9 -77l-8 -17v-34
q-19 -62 -17 -155l-9 -17l-8 -34q-61 2 -138 -26zM371 1821q37 -4 60 34q93 -61 223 -26q14 -24 43 -43q-1 -70 26 -180v-43l8 -34q-1 -13 9 -26l8 -68l9 -35v-42q10 -3 17 -18q-1 -12 9 -25q-5 -51 17 -120q-4 -76 43 -163q-2 -71 25 -155l9 -60q8 -60 34 -145
q5 -58 26 -138v-25q-1 -9 9 -18l17 -68v-35l26 -34l8 -137l9 -17l34 -137v-60l-154 8h-26q-36 3 -69 -8l-26 8h-42q-45 105 -60 275q-58 15 -138 8q-2 9 -17 17l-8 60q47 87 42 206l69 26q-19 55 -34 137l-9 17q2 9 -8 17q4 48 -7 98t-11 100q-18 34 -25 94l-9 34l-8 43
q-18 49 -18 129l-8 17l-17 43l-9 60l-9 43q-9 23 -17 68q5 27 -17 52l-8 60l-18 51v52l-17 51z" />
    <glyph glyph-name="B" unicode="B" horiz-adv-x="1141" 
d="M27 996v156q-2 63 0 156q2 9 -9 17l9 18v234q4 74 -9 191v26q56 35 139 44q45 -5 95 -26h70q4 -16 17 -26q-9 -83 0 -200l-9 -35v-26l-8 -26l8 -35v-86l9 -35v-165l-9 -26q0 -24 9 -52q-9 -41 0 -104l-9 -18v-52q-2 -50 9 -113l-9 -78l-8 -52q8 -26 8 -69l9 -52
q-19 -98 -9 -235l9 -17l-9 -35v-69l9 -52l9 -70l-18 -61q-141 -65 -295 -8l-17 26v590l9 174l-9 86q9 40 9 105zM504 1838q30 -5 61 17q514 -106 347 -816q-39 -9 -43 -52q-57 -13 -122 -69l122 -79l17 -8q104 -213 43 -460q-41 -350 -416 -391q-11 59 -9 139v95l-9 26
l-8 26q184 70 147 270q44 182 -130 260q9 74 0 191v61q169 43 139 243q45 178 -122 269q7 35 -8 78q19 98 -9 200z" />
    <glyph glyph-name="C" unicode="C" horiz-adv-x="1159" 
d="M686 602l34 60l154 -52l60 -25l25 -17q24 -118 -17 -248q-79 -336 -376 -308q-2 55 8 145v34q-6 26 -8 69l17 25l-9 17q79 26 120 112q4 72 -8 188zM463 1577v-60q-73 -19 -103 -94q-8 -73 9 -188l-9 -26v-34l9 -26q-13 -38 0 -85q-13 -47 -9 -111v-240l-8 -26l8 -34
l-8 -25q8 -56 0 -137l17 -146q73 -60 85 -171q-17 -68 0 -154l-8 -17l-77 -17q-176 64 -308 239q-37 95 -34 223v94q-9 51 -9 120l9 17q-5 49 0 120v196q-9 43 0 94l-9 35l9 42v214l17 111q30 43 60 120l8 17l43 43l8 26q48 15 103 51l26 9h26l42 34l26 8q9 2 17 17l60 -8
q2 -47 -9 -111q9 -52 9 -120zM583 1799q13 7 17 26q267 -60 342 -351q30 -92 9 -196q-41 -3 -77 -35q-60 -10 -129 -51l-17 -9l-34 9q-15 66 -8 154v51q-33 56 -103 94v308z" />
    <glyph glyph-name="D" unicode="D" horiz-adv-x="1123" 
d="M483 1773l34 52q497 -101 421 -938q58 -858 -438 -895q-20 80 -9 198l-8 34l-9 26l26 69q77 4 120 77l-17 52q26 93 17 224v34l-8 35l8 34q2 47 -17 95l17 34l-8 60q12 59 8 138v293l-8 60q-41 41 -112 43q4 32 -9 77q13 86 -8 198zM345 1102v-77q-13 -80 8 -181
q-10 -28 0 -69l-17 -34l9 -43l8 -52v-43q-15 -90 0 -224v-155q-8 -58 0 -137v-26l-8 -26q-140 -54 -310 -26l-17 35q13 96 0 232v26q15 54 9 120v35q-7 60 8 146q-4 47 0 112v172q-4 75 0 189v629q-4 27 -17 60l26 60l17 -17q146 36 301 -43q-24 -108 -17 -267l8 -60
q-10 -28 0 -69q-23 -99 0 -232z" />
    <glyph glyph-name="E" unicode="E" horiz-adv-x="1143" 
d="M347 1310q0 -39 -8 -103v-35l-18 -26v-34l43 -17q91 25 207 17h112l26 -26v-241l-9 -17l-34 -35q-45 9 -104 -8l-25 8q-37 -4 -86 0h-78l-26 17v-309l-8 -61v-26l-18 -68l173 8h25l26 -8h267l43 8q39 -6 78 -34l-9 -26v-198l-8 -26v-43l-9 -26q-9 -2 -17 -17
q-58 13 -138 9h-112l-26 8h-370l-95 17h-34l-35 -17l-51 9q-11 58 -9 138v1170q0 56 9 155v121q8 73 -9 189q22 15 52 52h206l26 -9h26q43 5 103 -8l18 8l60 -8h26q51 8 120 0h35l43 8q58 -13 146 -8h52q2 -22 17 -43q-26 -50 0 -112l-9 -60l9 -35l-26 -43q-86 -17 -224 0
q-38 -4 -103 0q-52 -11 -121 -9q-38 16 -86 18h-34q-13 -71 -9 -173v-51z" />
    <glyph glyph-name="F" unicode="F" horiz-adv-x="1125" 
d="M363 1826q28 0 68 -8h146l60 8q38 -6 102 0l17 -8h69l51 8l51 -17q28 -141 -34 -290q-55 -5 -137 8l-17 -8l-17 8l-26 -8h-102q-41 -3 -94 8l-43 -8l-34 8q-32 -6 -69 -34l-8 -154v-26l8 -68l-8 -43l8 -26l-8 -42q115 -35 282 -17l43 -18q10 -70 0 -154l8 -17v-60
l-34 -59h-282l-26 8v-804l-43 -17q-89 30 -205 9l-26 -9l-34 17q-11 73 9 188l-9 43l9 26v1522l34 43h171l26 -9h94z" />
    <glyph glyph-name="G" unicode="G" horiz-adv-x="1189" 
d="M1063 338v-351q-98 -31 -154 77q-185 -106 -248 -34v222l18 60q125 56 85 257h-85l-18 51v256l77 9q68 -10 146 8q59 -10 154 -8q19 -64 17 -154l8 -17v-26l-8 -17l8 -25l-8 -18l8 -25q-8 -61 9 -146q-12 -50 -9 -119zM687 1816q13 -1 26 9q261 -65 308 -350
q21 -73 17 -171q-74 -7 -137 -52l-68 -17l-60 9q-17 95 -9 231q-30 40 -85 76q-11 71 0 180v68zM542 1671v-51q-10 -70 -86 -103q-11 -36 -34 -77q12 -45 9 -111v-188q2 -44 17 -111q-13 -55 -9 -145v-231l9 -43v-136l8 -52v-51q44 -25 94 -77q-14 -103 17 -222v-26
q-20 -25 -34 -60q-504 98 -410 787q-17 83 0 196q-2 9 -17 17l17 17q-15 58 0 137q-11 28 -9 69q-9 21 0 51v43q-3 24 -17 51q28 45 9 102l17 43v43q98 171 290 282l112 -9l8 -59v-69q-1 -8 9 -17z" />
    <glyph glyph-name="H" unicode="H" horiz-adv-x="1207" 
d="M1033 11h-334q-13 69 -9 163l-8 402q8 67 0 163q-39 -2 -69 26q9 47 0 111v120q18 34 77 43q11 75 -17 171q11 28 0 68l9 137v26l-9 17v86q17 85 0 188q9 37 35 86h325q-21 -131 0 -334l-9 -43l9 -68l-9 -26q-6 -73 9 -171l-9 -60l9 -35l-9 -137l9 -17l-9 -34l9 -17v-26
l-9 -51v-51l9 -52l-9 -51q-2 -58 9 -137v-497zM220 3q-52 9 -78 -9l-77 17q-36 139 -8 343l-9 102l9 26q-17 62 0 154q-15 82 -9 197v959q121 65 334 26l9 -171v-112q-9 -62 8 -145q-15 -50 0 -112l-8 -25q2 -13 0 -35q13 -51 8 -119l-8 -60q25 -11 51 -9q7 -26 26 -51v-206
q-13 -55 -77 -51v-326q-7 -51 8 -119q-10 -84 0 -214l-8 -26v-26l-26 -17q-64 19 -145 9z" />
    <glyph glyph-name="I" unicode="I" horiz-adv-x="549" 
d="M363 12q-70 0 -170 -26q-58 23 -136 17l-9 51v485l-8 25l8 43l-8 51l8 43l-8 51q-5 46 8 110l-8 17v434q-11 102 0 264l-9 42l9 26l-9 51v85l34 25q40 -10 85 9l17 -9q81 22 179 -8l17 -136q-9 -26 -9 -68l9 -17v-1565z" />
    <glyph glyph-name="J" unicode="J" horiz-adv-x="1128" 
d="M461 714v-178l8 -25l-8 -34l8 -26l-8 -34v-25l16 -68l60 -34v-101q19 -89 -17 -178l8 -17q-499 114 -347 652q97 9 203 68h77zM1028 1349v-101q13 -58 9 -136v-415l8 -17l-8 -59v-314l-17 -67q-106 -210 -348 -229q-12 61 -8 152q0 13 -9 26l9 42l-17 26q23 63 76 110
l-17 25q30 97 17 229q4 51 0 118q13 62 0 127q6 28 0 60l9 42l-9 51l9 42l-9 43q9 23 9 67l-9 110q6 53 0 119l9 59l-9 51v119l9 67q-7 24 -9 68q26 32 76 51q89 -28 195 -8l26 -9q19 -127 8 -330v-26q4 -29 0 -93z" />
    <glyph glyph-name="K" unicode="K" horiz-adv-x="1157" 
d="M911 324q0 -19 8 -42l34 -179l17 -42l-17 -60q-38 -11 -93 0l-60 -17l-59 17l-26 -17h-51q-2 62 -34 136q2 36 0 85l-17 26v42q0 19 -17 34l9 26q0 57 -34 119v59l-17 43v59l-26 34l9 34q-22 36 -26 85l-17 17v221q-2 39 9 85v34l-9 26v93q74 113 77 272q38 60 42 153
l17 68l9 26l17 34q59 -9 153 0h119l34 -9l-51 -246l-9 -26l-8 -34v-25l-17 -17l-9 -26q-6 -38 -25 -93l-9 -34q-34 -77 -42 -187l-17 -17q-3 -96 34 -196v-59l8 -26l9 -25q0 -13 8 -26v-25q4 -56 26 -136l8 -43q0 -42 17 -93q0 -43 26 -102v-26zM350 1489v-77l-9 -25
q19 -68 9 -145q4 -40 0 -102l8 -25q-17 -66 0 -145v-34q-4 -44 0 -110v-315l9 -25q-13 -51 -9 -119l-8 -34l8 -77v-195l-8 -60q-43 0 -94 -17h-25q-64 17 -145 0q-47 40 -42 111v510l-9 34l9 25l-9 51q13 45 0 94l9 170v25q2 9 -9 17l9 17v60q-15 81 -9 195v485l60 17h255
q-11 -30 25 -60q-28 -78 -17 -178q-8 -23 -8 -68z" />
    <glyph glyph-name="L" unicode="L" horiz-adv-x="1113" 
d="M376 1193v-51l-8 -51v-59l17 -59q-13 -55 -9 -144v-178l9 -51l-9 -59v-221q81 -42 187 -17q51 -21 119 -8q91 -25 212 0l33 -17q17 -91 9 -237v-26q-30 -14 -76 -25q-81 15 -195 8h-509l-34 9h-34l-34 8l-25 17v424q2 55 0 144q8 61 0 144l8 59l-8 941l17 42l59 8h68
q9 -2 17 9q66 8 161 -9q36 -137 17 -338l8 -34q-8 -36 0 -85l-8 -25q-4 -53 8 -119z" />
    <glyph glyph-name="M" unicode="M" horiz-adv-x="1356" 
d="M30 993h9l59 -36q17 -63 56 -147v-25q31 -58 39 -138l17 -18q-3 -52 23 -103l7 -43l16 -34l8 -43q22 -39 40 -104l-4 -171l15 -60v-26l-10 -34l-9 -25q-36 1 -85 -7l-95 3l-25 -8l-26 9l-17 -8l-26 9q-3 20 -16 43q11 58 -5 137q8 44 3 94l2 94l9 26l2 68l-7 77l-7 43
l3 120q-6 67 12 162l2 60l-8 43zM33 1788l35 25q44 4 94 -11q26 7 68 7l26 -1l60 -1q12 -80 55 -181v-34l16 -18l31 -146l16 -34q2 -21 16 -44l7 -51q7 -64 48 -138q-1 -46 23 -95l8 -51l42 -18l46 127l19 68l10 51l17 16l10 34q34 -1 68 -18q5 -61 -12 -128l8 -18l-9 -25
l8 -26l-1 -34l-1 -26l-3 -120q-7 -43 6 -94l-9 -25l8 -35q-15 -74 -13 -187l7 -60l-38 -153l-18 -9v-25l-1 -26l-18 -34l-1 -34l-18 -42l-9 -34q-7 -23 -2 -51l-18 -60q-35 -11 -86 -15q-20 52 -23 121l-15 60l-17 26l1 34l-17 18q2 12 -8 25l-7 52l-7 43l-17 26l-7 34
l-17 35l-30 138l-25 26q-7 89 -56 181q-6 43 -32 103l1 26l-25 35q-5 60 -39 138l-16 43q-3 19 -16 43q-9 73 -56 164l1 25l-17 18l-7 60l-24 60l-25 44zM872 1793l35 33q92 -28 222 -14l17 -9q10 -70 4 -171l-1 -25v-26l-3 -103v-25l8 -18q-2 -19 7 -42q-12 -44 -2 -95
q-6 -13 -1 -34q-5 -20 -1 -42l-10 -34l8 -52l-3 -102l-1 -43q-1 -37 7 -86l-3 -94l8 -17l-9 -34q9 -39 -2 -94q7 -26 6 -69l8 -51l-19 -51l17 -35q-1 -39 -12 -102l7 -69v-25q-6 -13 -1 -26l-1 -26v-25q-6 -13 -1 -26l-1 -34l-2 -94q-115 -31 -266 -11q-28 95 -27 258l9 17
q-18 79 4 179q-18 60 -5 128q-8 43 -6 103l2 419q6 53 -6 120l10 410q-2 45 3 111z" />
    <glyph glyph-name="N" unicode="N" horiz-adv-x="1162" 
d="M918 1208v-136l16 -221l-9 -42l-68 26l1 76l-34 76l-34 86l-17 17l-8 25l-17 17q-11 36 -34 85l-17 26q-4 15 -17 25l-8 34l-8 43l-26 25l-8 34l-25 26q0 30 -9 59l1 68q-7 60 9 145q-5 36 0 85l51 8q78 -7 195 8h26q2 -9 17 -17q27 -105 7 -255l9 -26l-1 -144
q4 -35 1 -79t7 -74zM922 36q-8 -2 -17 -17q-76 -12 -152 43q-19 87 -85 196l-8 34l-17 17q-15 61 -59 127l-8 26l-17 25q-13 58 -59 119v26l-17 34l-25 26q-11 59 -59 110q-5 26 -17 51q2 9 -9 17q-19 66 -67 128v25l-76 128q-13 64 -68 128v25q-25 36 -50 85l-17 17l-9 17
q-10 58 -59 119l-16 85q6 43 0 94v59q64 21 153 0l60 16h34l25 -8q21 -66 84 -170q-2 -9 9 -17q0 -13 8 -26q11 -36 34 -85l17 -26q0 -12 8 -25l17 -43q13 -44 51 -93v-26l17 -25q8 -24 25 -51l17 -51l16 -43l93 -187l17 -51l25 -51q24 -62 76 -145q11 -53 51 -102
q2 -27 25 -68l34 -51q4 -27 17 -59l-1 -213l8 -17l-8 -25zM23 167v203q5 43 -8 94q13 46 0 110q11 51 1 119q4 45 -8 102q6 25 0 51l9 34q-13 51 -9 119q-8 68 10 161v26l34 -9q12 -34 42 -68q21 -119 101 -230l8 -34l34 -59l42 -102l9 -17l25 -26v-34l34 -42l8 -43l17 -34
q2 -21 17 -42q-43 -149 -1 -340l-9 -17l-9 -68l-170 -25q-97 -14 -178 43v102z" />
    <glyph glyph-name="O" unicode="O" horiz-adv-x="1151" 
d="M966 1032v-68l9 -34l-9 -34q11 -94 -8 -247v-161q-26 -64 -26 -154l-16 -50l-18 -86q-97 -152 -288 -212q-64 125 -43 298v34q49 31 85 93q6 98 -8 263l8 43l-17 25l17 43v578q-26 79 -102 136q0 30 -8 59q16 77 0 179l25 51q157 -30 289 -170q8 -40 42 -76l18 -136
l8 -18l8 -25q-4 -64 18 -145l8 -34v-34q-8 -50 8 -118zM320 1227q0 -13 9 -25l-9 -34v-26q7 -47 0 -119l9 -111v-186l9 -43l-9 -59q13 -46 9 -106t8 -141q23 -45 85 -68l17 -51q-4 -36 0 -85q-11 -59 0 -145l-8 -25q-192 -21 -306 153l-18 -8q-10 65 -50 170l-9 50
q2 37 -17 86l-8 118v26q-18 57 -18 136q5 36 -8 68l8 26q-14 104 0 254v204l18 52v59q14 55 25 145l34 84q98 117 272 179q74 -13 51 -272q-15 -49 -68 -77l-8 -34l-18 -25v-170z" />
    <glyph glyph-name="P" unicode="P" horiz-adv-x="1097" 
d="M33 1816h249l26 -17q30 -116 0 -258q18 -80 18 -198l-9 -18l9 -25v-440l8 -17v-112l9 -60v-594l-9 -61q-118 -28 -301 -17q-13 123 -9 327v371l-9 51l9 95q-11 71 -9 172v569q-15 97 18 232zM498 1791l34 34q416 -67 388 -560q28 -456 -414 -465q-12 75 -8 190v86
q99 34 120 138q3 62 -8 155v94q-37 65 -112 69q-4 50 8 112l-8 121q4 13 0 26z" />
    <glyph glyph-name="Q" unicode="Q" horiz-adv-x="1239" 
d="M444 1401v-487l-9 -44q9 -51 0 -132v-151l9 -35l-9 -35q13 -69 9 -168q27 -45 80 -80q0 -13 8 -27q-28 -86 9 -185l-17 -89l-115 9q-409 254 -328 840v486l62 248q106 159 301 256l80 -9q-34 -112 0 -256l-9 -26q-18 -60 -71 -115zM1107 1091v-71q11 -72 9 -176
q-7 -27 -9 -71l9 -27q-9 -4 -18 -17q11 -3 18 -18q-29 -84 -9 -194q-11 -58 -9 -151l-17 -44v-53q-20 -46 -71 -106l-9 -27q20 -62 71 -132v-53q-42 -27 -71 -80q-62 -29 -106 -106h-35q-62 66 -80 177q-38 26 -97 35q-7 27 -27 53q13 78 9 195v62q75 73 71 212
q-11 75 -9 318l-9 27l9 26v27l-9 35v44l9 36l-9 44v62l9 44q9 77 -9 194v45l-79 70v257q-3 40 8 97q47 -7 106 -35l27 -9h27l79 -44l9 -18h35q33 -53 106 -124q7 -35 26 -91t27 -148q9 -39 9 -106l9 -26l-9 -62q9 -27 9 -71z" />
    <glyph glyph-name="R" unicode="R" horiz-adv-x="1163" 
d="M958 685v-656l-8 -26q-61 -11 -156 0l-34 -9h-26l-18 9l-25 -9h-44q-17 86 -8 216v337q6 52 -9 112v26q-41 52 -112 52l-17 52q6 71 -9 172v26q26 63 112 87q117 365 -112 475q26 82 -17 164q-2 93 103 103q367 -28 372 -397q82 -311 -156 -492v-35q52 -17 104 -69l17 -9
l26 -60q4 -37 17 -69zM26 -6v406l-9 26v43q7 52 0 121l9 43q-7 56 0 138l-9 26l9 26v43q-11 85 -9 216v61q7 71 -8 190v95l8 34l-8 113q4 73 -9 190v25q41 3 78 26q69 -8 155 9q35 -6 86 -26q-6 -58 9 -138l-9 -17v-156l9 -26l-9 -43v-60l9 -35v-95q7 -58 0 -138v-69l9 -26
q-15 -102 -9 -268v-60q7 -76 -9 -190l9 -61l9 -190v-173l-26 -60h-285z" />
    <glyph glyph-name="S" unicode="S" horiz-adv-x="1247" 
d="M41 442q-14 135 228 132h70q22 -202 166 -289q24 -123 0 -315l-61 17h-27q-288 116 -376 455zM583 1790l9 26q318 -26 438 -350q24 -69 0 -148q-59 -1 -149 -18h-26q-13 1 -27 -9h-35l-35 -9h-26l-26 18q-10 43 -9 96q-21 41 -70 70l-35 53v201q4 37 -9 70zM347 1816
q13 -1 27 9q48 -1 105 -26q-5 -58 8 -140q-11 -44 -8 -97l-9 -17l9 -26q-12 -30 -18 -70q-26 -28 -52 -70q-10 -40 -9 -105q112 -124 288 -193q46 -51 123 -87l35 -35q49 -31 105 -97l17 -8l97 -193q2 -40 26 -79q31 -316 -236 -533q-84 -54 -202 -62q-18 87 -8 219l-9 131
q120 59 131 211q-31 80 -114 157l-61 17q-33 34 -87 70l-26 9l-9 18l-26 8l-9 18q-405 172 -359 665q27 30 53 79q27 39 52 96q24 15 44 44q66 22 122 87z" />
    <glyph glyph-name="T" unicode="T" horiz-adv-x="1179" 
d="M977 1492h-220l-17 9l-34 -9l-26 9v-586l9 -34l-9 -51l9 -34v-51l-9 -33q11 -58 9 -136v-238q-4 -55 8 -136v-178q-87 -42 -212 -17q-38 -17 -93 -17l-34 102q19 59 8 127v144q3 9 -8 17q13 90 -9 221q13 47 0 111v33q9 58 0 136v425l9 59l-9 110l-17 17q-42 0 -93 -17
q-47 13 -110 9h-51l-26 8q-21 60 -17 145v93l-8 43l8 17q70 12 170 8h297q68 -6 161 9h221l34 8l42 -8q49 -143 17 -315z" />
    <glyph glyph-name="U" unicode="U" horiz-adv-x="1143" 
d="M654 1815h251l18 -9q27 -104 19 -202t7 -161l-9 -26l9 -18v-26l-9 -26l9 -60v-494l8 -147v-156l9 -60q-13 -50 -17 -122q-18 -23 -26 -60q-102 -176 -312 -260q-6 15 -26 26q-2 58 0 139v25q2 9 -9 18v78q59 54 78 147l18 9l-9 43q-2 71 -26 190l-9 572l-8 52v95
q8 56 8 139q5 36 -8 86v113q2 43 34 95zM31 1815h312q19 -91 8 -208q-2 -8 9 -17q-9 -26 -9 -69v-26q5 -46 0 -113l9 -52q-11 -52 -9 -121l9 -61v-407q-6 -34 9 -69l-9 -35q20 -73 0 -164l9 -26v-87l8 -34q70 -52 70 -165q-9 -60 0 -156q-15 -4 -26 -17q-225 39 -347 277
q0 39 -26 87q3 71 -8 173v26q4 13 0 26v251l8 26v26q-17 69 -8 164q-11 85 -9 217v415q-4 46 0 113v26z" />
    <glyph glyph-name="V" unicode="V" horiz-adv-x="1151" 
d="M395 1558v-51l17 -26q-4 -45 17 -94l9 -60q0 -13 8 -26l9 -26q2 -23 17 -42v-26l17 -34q0 -60 26 -129v-25q8 -65 43 -129v-34l25 -120l9 -26l17 -68q2 -41 26 -103q4 -36 17 -69l34 -119q0 -71 -34 -137q-2 -82 -34 -197l-9 -18q-81 -15 -180 0q-6 26 -25 52
q8 130 -60 265q4 56 -17 103q0 24 -9 51l-17 95l-17 34q0 19 -9 43l-8 77l-35 103q0 12 -8 25v52l-17 25v52q-24 64 -43 162q-6 52 -34 120q0 37 -9 86l-17 17l-17 69q0 57 -26 137l-34 145v60q62 24 154 17q9 -2 17 9l137 -17q11 -79 52 -197zM695 1815h248q2 -9 17 -17
q0 -105 -43 -257q0 -49 -25 -111v-35l-9 -34l-17 -86l-9 -25v-34l-8 -69l-17 -34l-9 -52l-9 -42q-2 -52 -25 -120l-17 -146l-35 -34q-38 66 -34 163l-17 17l-34 145l-9 26q-4 68 -34 154q-2 21 -17 43l-17 34l17 77l8 17l9 60l9 35l8 60l9 51l8 26q5 49 26 119l9 35z" />
    <glyph glyph-name="W" unicode="W" horiz-adv-x="1547" 
d="M429 1500q0 -13 9 -26v-25l17 -35q0 -47 17 -111v-26l8 -34q5 -38 26 -85l9 -60v-26q0 -13 8 -26l9 -25v-34l42 -137q3 -45 18 -95q4 -40 25 -94v-68q-19 -60 -25 -154q-18 -34 -18 -86l-8 -34l-9 -34l-17 -111l-8 -43l-9 -43l-8 -43v-42q-43 4 -95 -9q-25 32 -42 86
q6 38 -17 77q2 42 -18 85v26q-6 60 -34 145l-8 34q-2 45 -17 95v42l-18 35q0 51 -25 119v43l-17 34q0 20 -9 43q-4 79 -25 120l-9 86l-17 59v26l-17 77l-9 34l-17 52l-8 60l-35 162v26l-51 197l9 51h316q49 -105 60 -257l17 -25v-26zM1079 1825h291q13 -126 -34 -299v-26
l-17 -69q0 -66 -26 -162q4 -64 -26 -137l9 -17q-7 -45 -26 -94v-77l-51 -17l-34 51q10 105 -52 205q-2 35 -17 77l-8 26l-9 43l-17 34v34l-26 26q-4 15 -17 26q-2 72 26 136q0 47 17 112q8 47 0 94zM703 1808q8 2 17 17q40 -2 85 -26l26 -111v-26l26 -85q15 -36 17 -86
q17 -36 25 -94l9 -34q6 -26 26 -51v-26q-2 -9 8 -17q2 -49 26 -120q2 -21 17 -43q2 -40 26 -102l17 -69q6 -25 25 -51l17 -69q3 -21 18 -42l8 -60l51 -146q0 -72 -25 -188l-9 -60v-26l-8 -25v-26l-9 -34v-26l-8 -25l-18 -69v-51l-17 -34h-102l-52 196l-17 77l-8 17l-34 137
q-3 62 -35 146l-8 43l-17 34q0 19 -9 43l-8 51l-18 43l-8 51l-17 60q-2 26 -17 51q0 82 -43 180q-2 66 -34 145q-5 28 -17 60l-17 69q8 79 51 171v43l17 25l26 103l17 26v34z" />
    <glyph glyph-name="X" unicode="X" horiz-adv-x="1249" 
d="M277 700l18 34l34 -10q14 -71 52 -173l13 -86q101 -138 4 -307q-9 -70 -49 -142q-60 -9 -127 5l-146 -11l-49 28l2 68q50 73 94 201l28 49l11 51l18 25l10 25l10 42l18 25q9 55 40 126q1 26 19 50zM257 1809q36 -2 86 13q44 -12 91 -63q6 -97 68 -191q3 -72 52 -164
q0 -13 17 -18q-3 -70 36 -146l6 -52q13 -49 46 -121q5 -36 22 -86l7 -26l8 -17q-1 -13 7 -26l31 -87q4 -55 45 -121l-1 -26l24 -43q8 -62 54 -122l-1 -34q17 -37 38 -104l24 -43q3 -60 46 -113q3 -75 52 -164l8 -26l-10 -34q-45 8 -94 4l-59 3l-34 1l-60 3l-25 1l-43 2
q-40 68 -69 173l-16 27l1 25q-2 9 -16 18q-5 79 -53 155l-7 43l-37 113l-39 87l-7 34l-90 277l-16 17l-22 95q-13 45 -38 95l-14 69l-24 52l-14 61l-23 60q-17 58 -54 139l-7 26q-7 32 -31 69q-6 54 -47 105l3 51q76 32 179 9zM998 1811l26 16q39 -28 39 -87
q-55 -94 -113 -260l-10 -16l-9 -25l-10 -34l-58 -142l-18 -34l-30 -101l-27 -41l-26 10q-11 83 -69 173q-3 28 -22 69q1 38 -22 78l-22 86l-16 26l1 26q54 66 75 167q23 37 47 100z" />
    <glyph glyph-name="Y" unicode="Y" horiz-adv-x="1206" 
d="M942 1806h51l25 -8q5 -43 -8 -102q-34 -57 -51 -153q-9 -3 -17 -17l-9 -26l-8 -34l-34 -93l-9 -34l-59 -161l8 -34q-15 -8 -25 -26l-43 -110l-8 -52q-22 -25 -60 -42q-23 55 -25 128l-9 16q1 13 -8 26l-17 68l-26 60v25l-17 17l-8 26l-9 34l-8 59q52 81 76 213l34 59
l9 34l17 34l17 68l25 25q81 -16 196 0zM24 1772l25 43q64 -9 153 0l17 -9h68q9 -1 17 9q13 -7 34 -9q7 -66 43 -161v-25l34 -94q-1 -13 8 -26q4 -39 26 -93l8 -51l17 -26q5 -47 34 -118q4 -39 26 -86v-25q-2 -9 8 -17l17 -68q4 -38 34 -85q2 -30 17 -59q2 -37 26 -86l17 -59
l8 -51q7 -20 26 -42q-15 -84 -9 -213q0 -28 -8 -68l8 -34l-8 -145l8 -34q15 -65 -25 -127l8 -17h-263l-51 34q-5 77 17 196l-9 16q10 58 9 136v43q-1 56 0 136v93q-35 72 -51 179l-9 17l-17 17l-25 102q-1 44 -34 93v26l-17 42l-9 43l-8 34q-9 12 -9 34q-14 65 -51 145v42
l-17 34q-10 57 -42 136l-43 136v26z" />
    <glyph glyph-name="Z" unicode="Z" horiz-adv-x="1131" 
d="M69 1815h308l265 -9l51 9h197l51 -17v-231l-9 -17v-34q-51 -62 -85 -163q-21 -36 -43 -102l-34 -68l-9 -26q-27 -47 -51 -128l-17 -9v-25l-17 -18v-34l-26 -25q-19 -84 -77 -197l-51 -128l-9 -17l-8 -34l-26 -43l-17 -51l-26 -43v-43q88 -21 206 0q42 -17 94 -17l25 9
h129l25 8l17 -26q-8 -62 9 -145l-9 -51q0 -13 9 -26l-9 -25l9 -26v-43l-34 -17q-84 -19 -197 0h-94q-51 -4 -120 0l-17 -8q-34 2 -68 -9q-2 9 -17 17l-52 -8q-57 12 -136 8h-137l-43 9q-2 27 0 68v60l9 17l-9 34v86l17 51q62 68 86 179q40 58 59 137l18 26l8 25q19 39 34 94
q20 41 60 94v35q24 38 34 85l18 9l25 77q32 51 43 128q51 87 103 239q-58 13 -137 9h-120l-120 8l-111 9v282z" />
    <glyph glyph-name="bracketleft" unicode="[" horiz-adv-x="282" 
 />
    <glyph glyph-name="backslash" unicode="\" horiz-adv-x="1001" 
d="M-16 1802h35l585 -1804h-505l-115 349v1455zM1023 1802v-1550l-505 1550h505z" />
    <glyph glyph-name="bracketright" unicode="]" horiz-adv-x="312" 
 />
    <glyph glyph-name="asciicircum" unicode="^" horiz-adv-x="330" 
 />
    <glyph glyph-name="underscore" unicode="_" horiz-adv-x="490" 
 />
    <glyph glyph-name="grave" unicode="`" horiz-adv-x="357" 
 />
    <glyph glyph-name="a" unicode="a" horiz-adv-x="1230" 
d="M88 3h-52l-17 25q-1 62 26 129q5 78 43 189l17 120l9 51l17 60l25 120v43l18 34q-1 60 25 146l35 180l17 69v34l26 43l60 -17q-2 -61 17 -137q-5 -51 17 -112v-34l8 -17v-35l9 -34l17 -171q-1 -13 9 -26v-26l8 -34q5 -61 -25 -129v-68l-9 -26v-26l-9 -77l-8 -17v-34
q-19 -62 -17 -155l-9 -17l-8 -34q-61 2 -138 -26zM371 1821q37 -4 60 34q93 -61 223 -26q14 -24 43 -43q-1 -70 26 -180v-43l8 -34q-1 -13 9 -26l8 -68l9 -35v-42q10 -3 17 -18q-1 -12 9 -25q-5 -51 17 -120q-4 -76 43 -163q-2 -71 25 -155l9 -60q8 -60 34 -145
q5 -58 26 -138v-25q-1 -9 9 -18l17 -68v-35l26 -34l8 -137l9 -17l34 -137v-60l-154 8h-26q-36 3 -69 -8l-26 8h-42q-45 105 -60 275q-58 15 -138 8q-2 9 -17 17l-8 60q47 87 42 206l69 26q-19 55 -34 137l-9 17q2 9 -8 17q4 48 -7 98t-11 100q-18 34 -25 94l-9 34l-8 43
q-18 49 -18 129l-8 17l-17 43l-9 60l-9 43q-9 23 -17 68q5 27 -17 52l-8 60l-18 51v52l-17 51z" />
    <glyph glyph-name="b" unicode="b" horiz-adv-x="1141" 
d="M27 996v156q-2 63 0 156q2 9 -9 17l9 18v234q4 74 -9 191v26q56 35 139 44q45 -5 95 -26h70q4 -16 17 -26q-9 -83 0 -200l-9 -35v-26l-8 -26l8 -35v-86l9 -35v-165l-9 -26q0 -24 9 -52q-9 -41 0 -104l-9 -18v-52q-2 -50 9 -113l-9 -78l-8 -52q8 -26 8 -69l9 -52
q-19 -98 -9 -235l9 -17l-9 -35v-69l9 -52l9 -70l-18 -61q-141 -65 -295 -8l-17 26v590l9 174l-9 86q9 40 9 105zM504 1838q30 -5 61 17q514 -106 347 -816q-39 -9 -43 -52q-57 -13 -122 -69l122 -79l17 -8q104 -213 43 -460q-41 -350 -416 -391q-11 59 -9 139v95l-9 26
l-8 26q184 70 147 270q44 182 -130 260q9 74 0 191v61q169 43 139 243q45 178 -122 269q7 35 -8 78q19 98 -9 200z" />
    <glyph glyph-name="c" unicode="c" horiz-adv-x="1159" 
d="M686 602l34 60l154 -52l60 -25l25 -17q24 -118 -17 -248q-79 -336 -376 -308q-2 55 8 145v34q-6 26 -8 69l17 25l-9 17q79 26 120 112q4 72 -8 188zM463 1577v-60q-73 -19 -103 -94q-8 -73 9 -188l-9 -26v-34l9 -26q-13 -38 0 -85q-13 -47 -9 -111v-240l-8 -26l8 -34
l-8 -25q8 -56 0 -137l17 -146q73 -60 85 -171q-17 -68 0 -154l-8 -17l-77 -17q-176 64 -308 239q-37 95 -34 223v94q-9 51 -9 120l9 17q-5 49 0 120v196q-9 43 0 94l-9 35l9 42v214l17 111q30 43 60 120l8 17l43 43l8 26q48 15 103 51l26 9h26l42 34l26 8q9 2 17 17l60 -8
q2 -47 -9 -111q9 -52 9 -120zM583 1799q13 7 17 26q267 -60 342 -351q30 -92 9 -196q-41 -3 -77 -35q-60 -10 -129 -51l-17 -9l-34 9q-15 66 -8 154v51q-33 56 -103 94v308z" />
    <glyph glyph-name="d" unicode="d" horiz-adv-x="1123" 
d="M483 1773l34 52q497 -101 421 -938q58 -858 -438 -895q-20 80 -9 198l-8 34l-9 26l26 69q77 4 120 77l-17 52q26 93 17 224v34l-8 35l8 34q2 47 -17 95l17 34l-8 60q12 59 8 138v293l-8 60q-41 41 -112 43q4 32 -9 77q13 86 -8 198zM345 1102v-77q-13 -80 8 -181
q-10 -28 0 -69l-17 -34l9 -43l8 -52v-43q-15 -90 0 -224v-155q-8 -58 0 -137v-26l-8 -26q-140 -54 -310 -26l-17 35q13 96 0 232v26q15 54 9 120v35q-7 60 8 146q-4 47 0 112v172q-4 75 0 189v629q-4 27 -17 60l26 60l17 -17q146 36 301 -43q-24 -108 -17 -267l8 -60
q-10 -28 0 -69q-23 -99 0 -232z" />
    <glyph glyph-name="e" unicode="e" horiz-adv-x="1143" 
d="M347 1310q0 -39 -8 -103v-35l-18 -26v-34l43 -17q91 25 207 17h112l26 -26v-241l-9 -17l-34 -35q-45 9 -104 -8l-25 8q-37 -4 -86 0h-78l-26 17v-309l-8 -61v-26l-18 -68l173 8h25l26 -8h267l43 8q39 -6 78 -34l-9 -26v-198l-8 -26v-43l-9 -26q-9 -2 -17 -17
q-58 13 -138 9h-112l-26 8h-370l-95 17h-34l-35 -17l-51 9q-11 58 -9 138v1170q0 56 9 155v121q8 73 -9 189q22 15 52 52h206l26 -9h26q43 5 103 -8l18 8l60 -8h26q51 8 120 0h35l43 8q58 -13 146 -8h52q2 -22 17 -43q-26 -50 0 -112l-9 -60l9 -35l-26 -43q-86 -17 -224 0
q-38 -4 -103 0q-52 -11 -121 -9q-38 16 -86 18h-34q-13 -71 -9 -173v-51z" />
    <glyph glyph-name="f" unicode="f" horiz-adv-x="1125" 
d="M363 1826q28 0 68 -8h146l60 8q38 -6 102 0l17 -8h69l51 8l51 -17q28 -141 -34 -290q-55 -5 -137 8l-17 -8l-17 8l-26 -8h-102q-41 -3 -94 8l-43 -8l-34 8q-32 -6 -69 -34l-8 -154v-26l8 -68l-8 -43l8 -26l-8 -42q115 -35 282 -17l43 -18q10 -70 0 -154l8 -17v-60
l-34 -59h-282l-26 8v-804l-43 -17q-89 30 -205 9l-26 -9l-34 17q-11 73 9 188l-9 43l9 26v1522l34 43h171l26 -9h94z" />
    <glyph glyph-name="g" unicode="g" horiz-adv-x="1189" 
d="M1063 338v-351q-98 -31 -154 77q-185 -106 -248 -34v222l18 60q125 56 85 257h-85l-18 51v256l77 9q68 -10 146 8q59 -10 154 -8q19 -64 17 -154l8 -17v-26l-8 -17l8 -25l-8 -18l8 -25q-8 -61 9 -146q-12 -50 -9 -119zM687 1816q13 -1 26 9q261 -65 308 -350
q21 -73 17 -171q-74 -7 -137 -52l-68 -17l-60 9q-17 95 -9 231q-30 40 -85 76q-11 71 0 180v68zM542 1671v-51q-10 -70 -86 -103q-11 -36 -34 -77q12 -45 9 -111v-188q2 -44 17 -111q-13 -55 -9 -145v-231l9 -43v-136l8 -52v-51q44 -25 94 -77q-14 -103 17 -222v-26
q-20 -25 -34 -60q-504 98 -410 787q-17 83 0 196q-2 9 -17 17l17 17q-15 58 0 137q-11 28 -9 69q-9 21 0 51v43q-3 24 -17 51q28 45 9 102l17 43v43q98 171 290 282l112 -9l8 -59v-69q-1 -8 9 -17z" />
    <glyph glyph-name="h" unicode="h" horiz-adv-x="1207" 
d="M1033 11h-334q-13 69 -9 163l-8 402q8 67 0 163q-39 -2 -69 26q9 47 0 111v120q18 34 77 43q11 75 -17 171q11 28 0 68l9 137v26l-9 17v86q17 85 0 188q9 37 35 86h325q-21 -131 0 -334l-9 -43l9 -68l-9 -26q-6 -73 9 -171l-9 -60l9 -35l-9 -137l9 -17l-9 -34l9 -17v-26
l-9 -51v-51l9 -52l-9 -51q-2 -58 9 -137v-497zM220 3q-52 9 -78 -9l-77 17q-36 139 -8 343l-9 102l9 26q-17 62 0 154q-15 82 -9 197v959q121 65 334 26l9 -171v-112q-9 -62 8 -145q-15 -50 0 -112l-8 -25q2 -13 0 -35q13 -51 8 -119l-8 -60q25 -11 51 -9q7 -26 26 -51v-206
q-13 -55 -77 -51v-326q-7 -51 8 -119q-10 -84 0 -214l-8 -26v-26l-26 -17q-64 19 -145 9z" />
    <glyph glyph-name="i" unicode="i" horiz-adv-x="549" 
d="M363 12q-70 0 -170 -26q-58 23 -136 17l-9 51v485l-8 25l8 43l-8 51l8 43l-8 51q-5 46 8 110l-8 17v434q-11 102 0 264l-9 42l9 26l-9 51v85l34 25q40 -10 85 9l17 -9q81 22 179 -8l17 -136q-9 -26 -9 -68l9 -17v-1565z" />
    <glyph glyph-name="j" unicode="j" horiz-adv-x="1128" 
d="M461 714v-178l8 -25l-8 -34l8 -26l-8 -34v-25l16 -68l60 -34v-101q19 -89 -17 -178l8 -17q-499 114 -347 652q97 9 203 68h77zM1028 1349v-101q13 -58 9 -136v-415l8 -17l-8 -59v-314l-17 -67q-106 -210 -348 -229q-12 61 -8 152q0 13 -9 26l9 42l-17 26q23 63 76 110
l-17 25q30 97 17 229q4 51 0 118q13 62 0 127q6 28 0 60l9 42l-9 51l9 42l-9 43q9 23 9 67l-9 110q6 53 0 119l9 59l-9 51v119l9 67q-7 24 -9 68q26 32 76 51q89 -28 195 -8l26 -9q19 -127 8 -330v-26q4 -29 0 -93z" />
    <glyph glyph-name="k" unicode="k" horiz-adv-x="1157" 
d="M911 324q0 -19 8 -42l34 -179l17 -42l-17 -60q-38 -11 -93 0l-60 -17l-59 17l-26 -17h-51q-2 62 -34 136q2 36 0 85l-17 26v42q0 19 -17 34l9 26q0 57 -34 119v59l-17 43v59l-26 34l9 34q-22 36 -26 85l-17 17v221q-2 39 9 85v34l-9 26v93q74 113 77 272q38 60 42 153
l17 68l9 26l17 34q59 -9 153 0h119l34 -9l-51 -246l-9 -26l-8 -34v-25l-17 -17l-9 -26q-6 -38 -25 -93l-9 -34q-34 -77 -42 -187l-17 -17q-3 -96 34 -196v-59l8 -26l9 -25q0 -13 8 -26v-25q4 -56 26 -136l8 -43q0 -42 17 -93q0 -43 26 -102v-26zM350 1489v-77l-9 -25
q19 -68 9 -145q4 -40 0 -102l8 -25q-17 -66 0 -145v-34q-4 -44 0 -110v-315l9 -25q-13 -51 -9 -119l-8 -34l8 -77v-195l-8 -60q-43 0 -94 -17h-25q-64 17 -145 0q-47 40 -42 111v510l-9 34l9 25l-9 51q13 45 0 94l9 170v25q2 9 -9 17l9 17v60q-15 81 -9 195v485l60 17h255
q-11 -30 25 -60q-28 -78 -17 -178q-8 -23 -8 -68z" />
    <glyph glyph-name="l" unicode="l" horiz-adv-x="1113" 
d="M376 1193v-51l-8 -51v-59l17 -59q-13 -55 -9 -144v-178l9 -51l-9 -59v-221q81 -42 187 -17q51 -21 119 -8q91 -25 212 0l33 -17q17 -91 9 -237v-26q-30 -14 -76 -25q-81 15 -195 8h-509l-34 9h-34l-34 8l-25 17v424q2 55 0 144q8 61 0 144l8 59l-8 941l17 42l59 8h68
q9 -2 17 9q66 8 161 -9q36 -137 17 -338l8 -34q-8 -36 0 -85l-8 -25q-4 -53 8 -119z" />
    <glyph glyph-name="m" unicode="m" horiz-adv-x="1356" 
d="M30 993h9l59 -36q17 -63 56 -147v-25q31 -58 39 -138l17 -18q-3 -52 23 -103l7 -43l16 -34l8 -43q22 -39 40 -104l-4 -171l15 -60v-26l-10 -34l-9 -25q-36 1 -85 -7l-95 3l-25 -8l-26 9l-17 -8l-26 9q-3 20 -16 43q11 58 -5 137q8 44 3 94l2 94l9 26l2 68l-7 77l-7 43
l3 120q-6 67 12 162l2 60l-8 43zM33 1788l35 25q44 4 94 -11q26 7 68 7l26 -1l60 -1q12 -80 55 -181v-34l16 -18l31 -146l16 -34q2 -21 16 -44l7 -51q7 -64 48 -138q-1 -46 23 -95l8 -51l42 -18l46 127l19 68l10 51l17 16l10 34q34 -1 68 -18q5 -61 -12 -128l8 -18l-9 -25
l8 -26l-1 -34l-1 -26l-3 -120q-7 -43 6 -94l-9 -25l8 -35q-15 -74 -13 -187l7 -60l-38 -153l-18 -9v-25l-1 -26l-18 -34l-1 -34l-18 -42l-9 -34q-7 -23 -2 -51l-18 -60q-35 -11 -86 -15q-20 52 -23 121l-15 60l-17 26l1 34l-17 18q2 12 -8 25l-7 52l-7 43l-17 26l-7 34
l-17 35l-30 138l-25 26q-7 89 -56 181q-6 43 -32 103l1 26l-25 35q-5 60 -39 138l-16 43q-3 19 -16 43q-9 73 -56 164l1 25l-17 18l-7 60l-24 60l-25 44zM872 1793l35 33q92 -28 222 -14l17 -9q10 -70 4 -171l-1 -25v-26l-3 -103v-25l8 -18q-2 -19 7 -42q-12 -44 -2 -95
q-6 -13 -1 -34q-5 -20 -1 -42l-10 -34l8 -52l-3 -102l-1 -43q-1 -37 7 -86l-3 -94l8 -17l-9 -34q9 -39 -2 -94q7 -26 6 -69l8 -51l-19 -51l17 -35q-1 -39 -12 -102l7 -69v-25q-6 -13 -1 -26l-1 -26v-25q-6 -13 -1 -26l-1 -34l-2 -94q-115 -31 -266 -11q-28 95 -27 258l9 17
q-18 79 4 179q-18 60 -5 128q-8 43 -6 103l2 419q6 53 -6 120l10 410q-2 45 3 111z" />
    <glyph glyph-name="n" unicode="n" horiz-adv-x="1162" 
d="M918 1208v-136l16 -221l-9 -42l-68 26l1 76l-34 76l-34 86l-17 17l-8 25l-17 17q-11 36 -34 85l-17 26q-4 15 -17 25l-8 34l-8 43l-26 25l-8 34l-25 26q0 30 -9 59l1 68q-7 60 9 145q-5 36 0 85l51 8q78 -7 195 8h26q2 -9 17 -17q27 -105 7 -255l9 -26l-1 -144
q4 -35 1 -79t7 -74zM922 36q-8 -2 -17 -17q-76 -12 -152 43q-19 87 -85 196l-8 34l-17 17q-15 61 -59 127l-8 26l-17 25q-13 58 -59 119v26l-17 34l-25 26q-11 59 -59 110q-5 26 -17 51q2 9 -9 17q-19 66 -67 128v25l-76 128q-13 64 -68 128v25q-25 36 -50 85l-17 17l-9 17
q-10 58 -59 119l-16 85q6 43 0 94v59q64 21 153 0l60 16h34l25 -8q21 -66 84 -170q-2 -9 9 -17q0 -13 8 -26q11 -36 34 -85l17 -26q0 -12 8 -25l17 -43q13 -44 51 -93v-26l17 -25q8 -24 25 -51l17 -51l16 -43l93 -187l17 -51l25 -51q24 -62 76 -145q11 -53 51 -102
q2 -27 25 -68l34 -51q4 -27 17 -59l-1 -213l8 -17l-8 -25zM23 167v203q5 43 -8 94q13 46 0 110q11 51 1 119q4 45 -8 102q6 25 0 51l9 34q-13 51 -9 119q-8 68 10 161v26l34 -9q12 -34 42 -68q21 -119 101 -230l8 -34l34 -59l42 -102l9 -17l25 -26v-34l34 -42l8 -43l17 -34
q2 -21 17 -42q-43 -149 -1 -340l-9 -17l-9 -68l-170 -25q-97 -14 -178 43v102z" />
    <glyph glyph-name="o" unicode="o" horiz-adv-x="1151" 
d="M966 1032v-68l9 -34l-9 -34q11 -94 -8 -247v-161q-26 -64 -26 -154l-16 -50l-18 -86q-97 -152 -288 -212q-64 125 -43 298v34q49 31 85 93q6 98 -8 263l8 43l-17 25l17 43v578q-26 79 -102 136q0 30 -8 59q16 77 0 179l25 51q157 -30 289 -170q8 -40 42 -76l18 -136
l8 -18l8 -25q-4 -64 18 -145l8 -34v-34q-8 -50 8 -118zM320 1227q0 -13 9 -25l-9 -34v-26q7 -47 0 -119l9 -111v-186l9 -43l-9 -59q13 -46 9 -106t8 -141q23 -45 85 -68l17 -51q-4 -36 0 -85q-11 -59 0 -145l-8 -25q-192 -21 -306 153l-18 -8q-10 65 -50 170l-9 50
q2 37 -17 86l-8 118v26q-18 57 -18 136q5 36 -8 68l8 26q-14 104 0 254v204l18 52v59q14 55 25 145l34 84q98 117 272 179q74 -13 51 -272q-15 -49 -68 -77l-8 -34l-18 -25v-170z" />
    <glyph glyph-name="p" unicode="p" horiz-adv-x="1097" 
d="M33 1816h249l26 -17q30 -116 0 -258q18 -80 18 -198l-9 -18l9 -25v-440l8 -17v-112l9 -60v-594l-9 -61q-118 -28 -301 -17q-13 123 -9 327v371l-9 51l9 95q-11 71 -9 172v569q-15 97 18 232zM498 1791l34 34q416 -67 388 -560q28 -456 -414 -465q-12 75 -8 190v86
q99 34 120 138q3 62 -8 155v94q-37 65 -112 69q-4 50 8 112l-8 121q4 13 0 26z" />
    <glyph glyph-name="q" unicode="q" horiz-adv-x="1239" 
d="M444 1401v-487l-9 -44q9 -51 0 -132v-151l9 -35l-9 -35q13 -69 9 -168q27 -45 80 -80q0 -13 8 -27q-28 -86 9 -185l-17 -89l-115 9q-409 254 -328 840v486l62 248q106 159 301 256l80 -9q-34 -112 0 -256l-9 -26q-18 -60 -71 -115zM1107 1091v-71q11 -72 9 -176
q-7 -27 -9 -71l9 -27q-9 -4 -18 -17q11 -3 18 -18q-29 -84 -9 -194q-11 -58 -9 -151l-17 -44v-53q-20 -46 -71 -106l-9 -27q20 -62 71 -132v-53q-42 -27 -71 -80q-62 -29 -106 -106h-35q-62 66 -80 177q-38 26 -97 35q-7 27 -27 53q13 78 9 195v62q75 73 71 212
q-11 75 -9 318l-9 27l9 26v27l-9 35v44l9 36l-9 44v62l9 44q9 77 -9 194v45l-79 70v257q-3 40 8 97q47 -7 106 -35l27 -9h27l79 -44l9 -18h35q33 -53 106 -124q7 -35 26 -91t27 -148q9 -39 9 -106l9 -26l-9 -62q9 -27 9 -71z" />
    <glyph glyph-name="r" unicode="r" horiz-adv-x="1163" 
d="M958 685v-656l-8 -26q-61 -11 -156 0l-34 -9h-26l-18 9l-25 -9h-44q-17 86 -8 216v337q6 52 -9 112v26q-41 52 -112 52l-17 52q6 71 -9 172v26q26 63 112 87q117 365 -112 475q26 82 -17 164q-2 93 103 103q367 -28 372 -397q82 -311 -156 -492v-35q52 -17 104 -69l17 -9
l26 -60q4 -37 17 -69zM26 -6v406l-9 26v43q7 52 0 121l9 43q-7 56 0 138l-9 26l9 26v43q-11 85 -9 216v61q7 71 -8 190v95l8 34l-8 113q4 73 -9 190v25q41 3 78 26q69 -8 155 9q35 -6 86 -26q-6 -58 9 -138l-9 -17v-156l9 -26l-9 -43v-60l9 -35v-95q7 -58 0 -138v-69l9 -26
q-15 -102 -9 -268v-60q7 -76 -9 -190l9 -61l9 -190v-173l-26 -60h-285z" />
    <glyph glyph-name="s" unicode="s" horiz-adv-x="1247" 
d="M41 442q-14 135 228 132h70q22 -202 166 -289q24 -123 0 -315l-61 17h-27q-288 116 -376 455zM583 1790l9 26q318 -26 438 -350q24 -69 0 -148q-59 -1 -149 -18h-26q-13 1 -27 -9h-35l-35 -9h-26l-26 18q-10 43 -9 96q-21 41 -70 70l-35 53v201q4 37 -9 70zM347 1816
q13 -1 27 9q48 -1 105 -26q-5 -58 8 -140q-11 -44 -8 -97l-9 -17l9 -26q-12 -30 -18 -70q-26 -28 -52 -70q-10 -40 -9 -105q112 -124 288 -193q46 -51 123 -87l35 -35q49 -31 105 -97l17 -8l97 -193q2 -40 26 -79q31 -316 -236 -533q-84 -54 -202 -62q-18 87 -8 219l-9 131
q120 59 131 211q-31 80 -114 157l-61 17q-33 34 -87 70l-26 9l-9 18l-26 8l-9 18q-405 172 -359 665q27 30 53 79q27 39 52 96q24 15 44 44q66 22 122 87z" />
    <glyph glyph-name="t" unicode="t" horiz-adv-x="1179" 
d="M977 1492h-220l-17 9l-34 -9l-26 9v-586l9 -34l-9 -51l9 -34v-51l-9 -33q11 -58 9 -136v-238q-4 -55 8 -136v-178q-87 -42 -212 -17q-38 -17 -93 -17l-34 102q19 59 8 127v144q3 9 -8 17q13 90 -9 221q13 47 0 111v33q9 58 0 136v425l9 59l-9 110l-17 17q-42 0 -93 -17
q-47 13 -110 9h-51l-26 8q-21 60 -17 145v93l-8 43l8 17q70 12 170 8h297q68 -6 161 9h221l34 8l42 -8q49 -143 17 -315z" />
    <glyph glyph-name="u" unicode="u" horiz-adv-x="1143" 
d="M654 1815h251l18 -9q27 -104 19 -202t7 -161l-9 -26l9 -18v-26l-9 -26l9 -60v-494l8 -147v-156l9 -60q-13 -50 -17 -122q-18 -23 -26 -60q-102 -176 -312 -260q-6 15 -26 26q-2 58 0 139v25q2 9 -9 18v78q59 54 78 147l18 9l-9 43q-2 71 -26 190l-9 572l-8 52v95
q8 56 8 139q5 36 -8 86v113q2 43 34 95zM31 1815h312q19 -91 8 -208q-2 -8 9 -17q-9 -26 -9 -69v-26q5 -46 0 -113l9 -52q-11 -52 -9 -121l9 -61v-407q-6 -34 9 -69l-9 -35q20 -73 0 -164l9 -26v-87l8 -34q70 -52 70 -165q-9 -60 0 -156q-15 -4 -26 -17q-225 39 -347 277
q0 39 -26 87q3 71 -8 173v26q4 13 0 26v251l8 26v26q-17 69 -8 164q-11 85 -9 217v415q-4 46 0 113v26z" />
    <glyph glyph-name="v" unicode="v" horiz-adv-x="1151" 
d="M395 1558v-51l17 -26q-4 -45 17 -94l9 -60q0 -13 8 -26l9 -26q2 -23 17 -42v-26l17 -34q0 -60 26 -129v-25q8 -65 43 -129v-34l25 -120l9 -26l17 -68q2 -41 26 -103q4 -36 17 -69l34 -119q0 -71 -34 -137q-2 -82 -34 -197l-9 -18q-81 -15 -180 0q-6 26 -25 52
q8 130 -60 265q4 56 -17 103q0 24 -9 51l-17 95l-17 34q0 19 -9 43l-8 77l-35 103q0 12 -8 25v52l-17 25v52q-24 64 -43 162q-6 52 -34 120q0 37 -9 86l-17 17l-17 69q0 57 -26 137l-34 145v60q62 24 154 17q9 -2 17 9l137 -17q11 -79 52 -197zM695 1815h248q2 -9 17 -17
q0 -105 -43 -257q0 -49 -25 -111v-35l-9 -34l-17 -86l-9 -25v-34l-8 -69l-17 -34l-9 -52l-9 -42q-2 -52 -25 -120l-17 -146l-35 -34q-38 66 -34 163l-17 17l-34 145l-9 26q-4 68 -34 154q-2 21 -17 43l-17 34l17 77l8 17l9 60l9 35l8 60l9 51l8 26q5 49 26 119l9 35z" />
    <glyph glyph-name="w" unicode="w" horiz-adv-x="1547" 
d="M429 1500q0 -13 9 -26v-25l17 -35q0 -47 17 -111v-26l8 -34q5 -38 26 -85l9 -60v-26q0 -13 8 -26l9 -25v-34l42 -137q3 -45 18 -95q4 -40 25 -94v-68q-19 -60 -25 -154q-18 -34 -18 -86l-8 -34l-9 -34l-17 -111l-8 -43l-9 -43l-8 -43v-42q-43 4 -95 -9q-25 32 -42 86
q6 38 -17 77q2 42 -18 85v26q-6 60 -34 145l-8 34q-2 45 -17 95v42l-18 35q0 51 -25 119v43l-17 34q0 20 -9 43q-4 79 -25 120l-9 86l-17 59v26l-17 77l-9 34l-17 52l-8 60l-35 162v26l-51 197l9 51h316q49 -105 60 -257l17 -25v-26zM1079 1825h291q13 -126 -34 -299v-26
l-17 -69q0 -66 -26 -162q4 -64 -26 -137l9 -17q-7 -45 -26 -94v-77l-51 -17l-34 51q10 105 -52 205q-2 35 -17 77l-8 26l-9 43l-17 34v34l-26 26q-4 15 -17 26q-2 72 26 136q0 47 17 112q8 47 0 94zM703 1808q8 2 17 17q40 -2 85 -26l26 -111v-26l26 -85q15 -36 17 -86
q17 -36 25 -94l9 -34q6 -26 26 -51v-26q-2 -9 8 -17q2 -49 26 -120q2 -21 17 -43q2 -40 26 -102l17 -69q6 -25 25 -51l17 -69q3 -21 18 -42l8 -60l51 -146q0 -72 -25 -188l-9 -60v-26l-8 -25v-26l-9 -34v-26l-8 -25l-18 -69v-51l-17 -34h-102l-52 196l-17 77l-8 17l-34 137
q-3 62 -35 146l-8 43l-17 34q0 19 -9 43l-8 51l-18 43l-8 51l-17 60q-2 26 -17 51q0 82 -43 180q-2 66 -34 145q-5 28 -17 60l-17 69q8 79 51 171v43l17 25l26 103l17 26v34z" />
    <glyph glyph-name="x" unicode="x" horiz-adv-x="1249" 
d="M277 700l18 34l34 -10q14 -71 52 -173l13 -86q101 -138 4 -307q-9 -70 -49 -142q-60 -9 -127 5l-146 -11l-49 28l2 68q50 73 94 201l28 49l11 51l18 25l10 25l10 42l18 25q9 55 40 126q1 26 19 50zM257 1809q36 -2 86 13q44 -12 91 -63q6 -97 68 -191q3 -72 52 -164
q0 -13 17 -18q-3 -70 36 -146l6 -52q13 -49 46 -121q5 -36 22 -86l7 -26l8 -17q-1 -13 7 -26l31 -87q4 -55 45 -121l-1 -26l24 -43q8 -62 54 -122l-1 -34q17 -37 38 -104l24 -43q3 -60 46 -113q3 -75 52 -164l8 -26l-10 -34q-45 8 -94 4l-59 3l-34 1l-60 3l-25 1l-43 2
q-40 68 -69 173l-16 27l1 25q-2 9 -16 18q-5 79 -53 155l-7 43l-37 113l-39 87l-7 34l-90 277l-16 17l-22 95q-13 45 -38 95l-14 69l-24 52l-14 61l-23 60q-17 58 -54 139l-7 26q-7 32 -31 69q-6 54 -47 105l3 51q76 32 179 9zM998 1811l26 16q39 -28 39 -87
q-55 -94 -113 -260l-10 -16l-9 -25l-10 -34l-58 -142l-18 -34l-30 -101l-27 -41l-26 10q-11 83 -69 173q-3 28 -22 69q1 38 -22 78l-22 86l-16 26l1 26q54 66 75 167q23 37 47 100z" />
    <glyph glyph-name="y" unicode="y" horiz-adv-x="1206" 
d="M942 1806h51l25 -8q5 -43 -8 -102q-34 -57 -51 -153q-9 -3 -17 -17l-9 -26l-8 -34l-34 -93l-9 -34l-59 -161l8 -34q-15 -8 -25 -26l-43 -110l-8 -52q-22 -25 -60 -42q-23 55 -25 128l-9 16q1 13 -8 26l-17 68l-26 60v25l-17 17l-8 26l-9 34l-8 59q52 81 76 213l34 59
l9 34l17 34l17 68l25 25q81 -16 196 0zM24 1772l25 43q64 -9 153 0l17 -9h68q9 -1 17 9q13 -7 34 -9q7 -66 43 -161v-25l34 -94q-1 -13 8 -26q4 -39 26 -93l8 -51l17 -26q5 -47 34 -118q4 -39 26 -86v-25q-2 -9 8 -17l17 -68q4 -38 34 -85q2 -30 17 -59q2 -37 26 -86l17 -59
l8 -51q7 -20 26 -42q-15 -84 -9 -213q0 -28 -8 -68l8 -34l-8 -145l8 -34q15 -65 -25 -127l8 -17h-263l-51 34q-5 77 17 196l-9 16q10 58 9 136v43q-1 56 0 136v93q-35 72 -51 179l-9 17l-17 17l-25 102q-1 44 -34 93v26l-17 42l-9 43l-8 34q-9 12 -9 34q-14 65 -51 145v42
l-17 34q-10 57 -42 136l-43 136v26z" />
    <glyph glyph-name="z" unicode="z" horiz-adv-x="1131" 
d="M69 1815h308l265 -9l51 9h197l51 -17v-231l-9 -17v-34q-51 -62 -85 -163q-21 -36 -43 -102l-34 -68l-9 -26q-27 -47 -51 -128l-17 -9v-25l-17 -18v-34l-26 -25q-19 -84 -77 -197l-51 -128l-9 -17l-8 -34l-26 -43l-17 -51l-26 -43v-43q88 -21 206 0q42 -17 94 -17l25 9
h129l25 8l17 -26q-8 -62 9 -145l-9 -51q0 -13 9 -26l-9 -25l9 -26v-43l-34 -17q-84 -19 -197 0h-94q-51 -4 -120 0l-17 -8q-34 2 -68 -9q-2 9 -17 17l-52 -8q-57 12 -136 8h-137l-43 9q-2 27 0 68v60l9 17l-9 34v86l17 51q62 68 86 179q40 58 59 137l18 26l8 25q19 39 34 94
q20 41 60 94v35q24 38 34 85l18 9l25 77q32 51 43 128q51 87 103 239q-58 13 -137 9h-120l-120 8l-111 9v282z" />
    <glyph glyph-name="braceleft" unicode="{" horiz-adv-x="420" 
 />
    <glyph glyph-name="bar" unicode="|" horiz-adv-x="201" 
 />
    <glyph glyph-name="braceright" unicode="}" horiz-adv-x="360" 
 />
    <glyph glyph-name="asciitilde" unicode="~" 
 />
    <glyph glyph-name="nonbreakingspace" unicode="&#xa0;" horiz-adv-x="498" 
 />
    <glyph glyph-name="exclamdown" unicode="&#xa1;" horiz-adv-x="309" 
 />
    <glyph glyph-name="cent" unicode="&#xa2;" 
 />
    <glyph glyph-name="sterling" unicode="&#xa3;" 
 />
    <glyph glyph-name="currency" unicode="&#xa4;" horiz-adv-x="420" 
 />
    <glyph glyph-name="yen" unicode="&#xa5;" 
 />
    <glyph glyph-name="brokenbar" unicode="&#xa6;" horiz-adv-x="201" 
 />
    <glyph glyph-name="section" unicode="&#xa7;" horiz-adv-x="420" 
 />
    <glyph glyph-name="dieresis" unicode="&#xa8;" horiz-adv-x="371" 
 />
    <glyph glyph-name="copyright" unicode="&#xa9;" horiz-adv-x="714" 
 />
    <glyph glyph-name="ordfeminine" unicode="&#xaa;" horiz-adv-x="402" 
 />
    <glyph glyph-name="guillemotleft" unicode="&#xab;" horiz-adv-x="540" 
 />
    <glyph glyph-name="logicalnot" unicode="&#xac;" horiz-adv-x="1395" 
 />
    <glyph glyph-name="minus" unicode="&#xad;" 
 />
    <glyph glyph-name="minus" unicode="&#x2212;" 
 />
    <glyph glyph-name="registered" unicode="&#xae;" horiz-adv-x="747" 
 />
    <glyph glyph-name="macron" unicode="&#xaf;" horiz-adv-x="360" 
 />
    <glyph glyph-name="macron" unicode="&#x2c9;" horiz-adv-x="360" 
 />
    <glyph glyph-name="degree" unicode="&#xb0;" horiz-adv-x="285" 
 />
    <glyph glyph-name="plusminus" unicode="&#xb1;" 
 />
    <glyph glyph-name="twosuperior" unicode="&#xb2;" horiz-adv-x="300" 
 />
    <glyph glyph-name="threesuperior" unicode="&#xb3;" horiz-adv-x="300" 
 />
    <glyph glyph-name="acute" unicode="&#xb4;" horiz-adv-x="462" 
 />
    <glyph glyph-name="mu" unicode="&#xb5;" horiz-adv-x="420" 
 />
    <glyph glyph-name="mu" unicode="&#x3bc;" horiz-adv-x="420" 
 />
    <glyph glyph-name="paragraph" unicode="&#xb6;" horiz-adv-x="450" 
 />
    <glyph glyph-name="periodcentered" unicode="&#xb7;" horiz-adv-x="207" 
 />
    <glyph glyph-name="periodcentered" unicode="&#x2219;" horiz-adv-x="207" 
 />
    <glyph glyph-name="cedilla" unicode="&#xb8;" horiz-adv-x="321" 
 />
    <glyph glyph-name="onesuperior" unicode="&#xb9;" horiz-adv-x="300" 
 />
    <glyph glyph-name="ordmasculine" unicode="&#xba;" horiz-adv-x="402" 
 />
    <glyph glyph-name="guillemotright" unicode="&#xbb;" horiz-adv-x="540" 
 />
    <glyph glyph-name="onequarter" unicode="&#xbc;" horiz-adv-x="786" 
 />
    <glyph glyph-name="onehalf" unicode="&#xbd;" horiz-adv-x="786" 
 />
    <glyph glyph-name="threequarters" unicode="&#xbe;" horiz-adv-x="786" 
 />
    <glyph glyph-name="questiondown" unicode="&#xbf;" horiz-adv-x="567" 
 />
    <glyph glyph-name="Agrave" unicode="&#xc0;" horiz-adv-x="609" 
 />
    <glyph glyph-name="Aacute" unicode="&#xc1;" horiz-adv-x="609" 
 />
    <glyph glyph-name="Acircumflex" unicode="&#xc2;" horiz-adv-x="609" 
 />
    <glyph glyph-name="Atilde" unicode="&#xc3;" horiz-adv-x="609" 
 />
    <glyph glyph-name="Adieresis" unicode="&#xc4;" horiz-adv-x="609" 
 />
    <glyph glyph-name="Aring" unicode="&#xc5;" horiz-adv-x="609" 
 />
    <glyph glyph-name="AE" unicode="&#xc6;" horiz-adv-x="819" 
 />
    <glyph glyph-name="Ccedilla" unicode="&#xc7;" horiz-adv-x="729" 
 />
    <glyph glyph-name="Egrave" unicode="&#xc8;" horiz-adv-x="648" 
 />
    <glyph glyph-name="Eacute" unicode="&#xc9;" horiz-adv-x="648" 
 />
    <glyph glyph-name="Ecircumflex" unicode="&#xca;" horiz-adv-x="648" 
 />
    <glyph glyph-name="Edieresis" unicode="&#xcb;" horiz-adv-x="648" 
 />
    <glyph glyph-name="Igrave" unicode="&#xcc;" horiz-adv-x="234" 
 />
    <glyph glyph-name="Iacute" unicode="&#xcd;" horiz-adv-x="234" 
 />
    <glyph glyph-name="Icircumflex" unicode="&#xce;" horiz-adv-x="234" 
 />
    <glyph glyph-name="Idieresis" unicode="&#xcf;" horiz-adv-x="234" 
 />
    <glyph glyph-name="Eth" unicode="&#xd0;" horiz-adv-x="663" 
 />
    <glyph glyph-name="Ntilde" unicode="&#xd1;" horiz-adv-x="612" 
 />
    <glyph glyph-name="Ograve" unicode="&#xd2;" horiz-adv-x="696" 
 />
    <glyph glyph-name="Oacute" unicode="&#xd3;" horiz-adv-x="696" 
 />
    <glyph glyph-name="Ocircumflex" unicode="&#xd4;" horiz-adv-x="696" 
 />
    <glyph glyph-name="Otilde" unicode="&#xd5;" horiz-adv-x="696" 
 />
    <glyph glyph-name="Odieresis" unicode="&#xd6;" horiz-adv-x="696" 
 />
    <glyph glyph-name="multiply" unicode="&#xd7;" 
 />
    <glyph glyph-name="Oslash" unicode="&#xd8;" horiz-adv-x="696" 
 />
    <glyph glyph-name="Ugrave" unicode="&#xd9;" horiz-adv-x="660" 
 />
    <glyph glyph-name="Uacute" unicode="&#xda;" horiz-adv-x="660" 
 />
    <glyph glyph-name="Ucircumflex" unicode="&#xdb;" horiz-adv-x="660" 
 />
    <glyph glyph-name="Udieresis" unicode="&#xdc;" horiz-adv-x="660" 
 />
    <glyph glyph-name="Yacute" unicode="&#xdd;" horiz-adv-x="526" 
 />
    <glyph glyph-name="Thorn" unicode="&#xde;" horiz-adv-x="576" 
 />
    <glyph glyph-name="germandbls" unicode="&#xdf;" horiz-adv-x="498" 
 />
    <glyph glyph-name="agrave" unicode="&#xe0;" horiz-adv-x="369" 
 />
    <glyph glyph-name="aacute" unicode="&#xe1;" horiz-adv-x="369" 
 />
    <glyph glyph-name="acircumflex" unicode="&#xe2;" horiz-adv-x="369" 
 />
    <glyph glyph-name="atilde" unicode="&#xe3;" horiz-adv-x="369" 
 />
    <glyph glyph-name="adieresis" unicode="&#xe4;" horiz-adv-x="369" 
 />
    <glyph glyph-name="aring" unicode="&#xe5;" horiz-adv-x="369" 
 />
    <glyph glyph-name="ae" unicode="&#xe6;" horiz-adv-x="747" 
 />
    <glyph glyph-name="ccedilla" unicode="&#xe7;" horiz-adv-x="510" 
 />
    <glyph glyph-name="egrave" unicode="&#xe8;" horiz-adv-x="486" 
 />
    <glyph glyph-name="eacute" unicode="&#xe9;" horiz-adv-x="486" 
 />
    <glyph glyph-name="ecircumflex" unicode="&#xea;" horiz-adv-x="486" 
 />
    <glyph glyph-name="edieresis" unicode="&#xeb;" horiz-adv-x="486" 
 />
    <glyph glyph-name="igrave" unicode="&#xec;" horiz-adv-x="234" 
 />
    <glyph glyph-name="iacute" unicode="&#xed;" horiz-adv-x="234" 
 />
    <glyph glyph-name="icircumflex" unicode="&#xee;" horiz-adv-x="234" 
 />
    <glyph glyph-name="idieresis" unicode="&#xef;" horiz-adv-x="234" 
 />
    <glyph glyph-name="eth" unicode="&#xf0;" horiz-adv-x="483" 
 />
    <glyph glyph-name="ntilde" unicode="&#xf1;" horiz-adv-x="384" 
 />
    <glyph glyph-name="ograve" unicode="&#xf2;" horiz-adv-x="366" 
 />
    <glyph glyph-name="oacute" unicode="&#xf3;" horiz-adv-x="366" 
 />
    <glyph glyph-name="ocircumflex" unicode="&#xf4;" horiz-adv-x="366" 
 />
    <glyph glyph-name="otilde" unicode="&#xf5;" horiz-adv-x="366" 
 />
    <glyph glyph-name="odieresis" unicode="&#xf6;" horiz-adv-x="366" 
 />
    <glyph glyph-name="divide" unicode="&#xf7;" 
 />
    <glyph glyph-name="oslash" unicode="&#xf8;" horiz-adv-x="366" 
 />
    <glyph glyph-name="ugrave" unicode="&#xf9;" horiz-adv-x="342" 
 />
    <glyph glyph-name="uacute" unicode="&#xfa;" horiz-adv-x="342" 
 />
    <glyph glyph-name="ucircumflex" unicode="&#xfb;" horiz-adv-x="342" 
 />
    <glyph glyph-name="udieresis" unicode="&#xfc;" horiz-adv-x="342" 
 />
    <glyph glyph-name="yacute" unicode="&#xfd;" horiz-adv-x="393" 
 />
    <glyph glyph-name="thorn" unicode="&#xfe;" horiz-adv-x="348" 
 />
    <glyph glyph-name="ydieresis" unicode="&#xff;" horiz-adv-x="393" 
 />
    <glyph glyph-name="dotlessi" unicode="&#x131;" horiz-adv-x="234" 
 />
    <glyph glyph-name="Lslash" unicode="&#x141;" horiz-adv-x="570" 
 />
    <glyph glyph-name="lslash" unicode="&#x142;" horiz-adv-x="213" 
 />
    <glyph glyph-name="OE" unicode="&#x152;" horiz-adv-x="954" 
 />
    <glyph glyph-name="oe" unicode="&#x153;" horiz-adv-x="756" 
 />
    <glyph glyph-name="Scaron" unicode="&#x160;" horiz-adv-x="621" 
 />
    <glyph glyph-name="scaron" unicode="&#x161;" horiz-adv-x="342" 
 />
    <glyph glyph-name="Ydieresis" unicode="&#x178;" horiz-adv-x="526" 
 />
    <glyph glyph-name="Zcaron" unicode="&#x17d;" horiz-adv-x="690" 
 />
    <glyph glyph-name="zcaron" unicode="&#x17e;" horiz-adv-x="462" 
 />
    <glyph glyph-name="florin" unicode="&#x192;" horiz-adv-x="576" 
 />
    <glyph glyph-name="circumflex" unicode="&#x2c6;" horiz-adv-x="360" 
 />
    <glyph glyph-name="caron" unicode="&#x2c7;" horiz-adv-x="360" 
 />
    <glyph glyph-name="breve" unicode="&#x2d8;" horiz-adv-x="360" 
 />
    <glyph glyph-name="dotaccent" unicode="&#x2d9;" horiz-adv-x="183" 
 />
    <glyph glyph-name="ring" unicode="&#x2da;" horiz-adv-x="360" 
 />
    <glyph glyph-name="ogonek" unicode="&#x2db;" horiz-adv-x="270" 
 />
    <glyph glyph-name="tilde" unicode="&#x2dc;" horiz-adv-x="483" 
 />
    <glyph glyph-name="hungarumlaut" unicode="&#x2dd;" horiz-adv-x="468" 
 />
    <glyph glyph-name="Delta" unicode="&#x394;" horiz-adv-x="366" 
 />
    <glyph glyph-name="Delta" unicode="&#x2206;" horiz-adv-x="366" 
 />
    <glyph glyph-name="Omega" unicode="&#x3a9;" horiz-adv-x="1443" 
 />
    <glyph glyph-name="Omega" unicode="&#x2126;" horiz-adv-x="1443" 
 />
    <glyph glyph-name="pi" unicode="&#x3c0;" horiz-adv-x="798" 
 />
    <glyph glyph-name="endash" unicode="&#x2013;" horiz-adv-x="684" 
 />
    <glyph glyph-name="emdash" unicode="&#x2014;" horiz-adv-x="894" 
 />
    <glyph glyph-name="quoteleft" unicode="&#x2018;" horiz-adv-x="237" 
 />
    <glyph glyph-name="quoteright" unicode="&#x2019;" horiz-adv-x="240" 
 />
    <glyph glyph-name="quotesinglbase" unicode="&#x201a;" horiz-adv-x="234" 
 />
    <glyph glyph-name="quotedblleft" unicode="&#x201c;" horiz-adv-x="342" 
 />
    <glyph glyph-name="quotedblright" unicode="&#x201d;" horiz-adv-x="300" 
 />
    <glyph glyph-name="quotedblbase" unicode="&#x201e;" horiz-adv-x="402" 
 />
    <glyph glyph-name="dagger" unicode="&#x2020;" horiz-adv-x="451" 
 />
    <glyph glyph-name="daggerdbl" unicode="&#x2021;" horiz-adv-x="336" 
 />
    <glyph glyph-name="bullet" unicode="&#x2022;" horiz-adv-x="387" 
 />
    <glyph glyph-name="ellipsis" unicode="&#x2026;" horiz-adv-x="792" 
 />
    <glyph glyph-name="perthousand" unicode="&#x2030;" horiz-adv-x="729" 
 />
    <glyph glyph-name="guilsinglleft" unicode="&#x2039;" horiz-adv-x="321" 
 />
    <glyph glyph-name="guilsinglright" unicode="&#x203a;" horiz-adv-x="321" 
 />
    <glyph glyph-name="fraction" unicode="&#x2044;" horiz-adv-x="234" 
 />
    <glyph glyph-name="trademark" unicode="&#x2122;" horiz-adv-x="681" 
 />
    <glyph glyph-name="partialdiff" unicode="&#x2202;" horiz-adv-x="483" 
 />
    <glyph glyph-name="product" unicode="&#x220f;" horiz-adv-x="798" 
 />
    <glyph glyph-name="summation" unicode="&#x2211;" horiz-adv-x="1398" 
 />
    <glyph glyph-name="radical" unicode="&#x221a;" horiz-adv-x="819" 
 />
    <glyph glyph-name="infinity" unicode="&#x221e;" horiz-adv-x="669" 
 />
    <glyph glyph-name="integral" unicode="&#x222b;" horiz-adv-x="1398" 
 />
    <glyph glyph-name="approxequal" unicode="&#x2248;" 
 />
    <glyph glyph-name="approxequal" unicode="&#x22f2;" 
 />
    <glyph glyph-name="notequal" unicode="&#x2260;" 
 />
    <glyph glyph-name="lessequal" unicode="&#x2264;" horiz-adv-x="342" 
 />
    <glyph glyph-name="greaterequal" unicode="&#x2265;" horiz-adv-x="342" 
 />
    <glyph glyph-name="lozenge" unicode="&#x25ca;" horiz-adv-x="243" 
 />
    <glyph glyph-name="apple" unicode="&#xf000;" horiz-adv-x="588" 
 />
    <glyph glyph-name="fi" unicode="&#xf001;" horiz-adv-x="525" 
 />
    <glyph glyph-name="fl" unicode="&#xf002;" horiz-adv-x="480" 
 />
  </font>
</defs>
</svg>
